<?xml version="1.0" encoding="iso-8859-1"?>
<!-- Generator: Adobe Illustrator 16.0.3, SVG Export Plug-In . SVG Version: 6.00 Build 0)  -->
<!DOCTYPE svg PUBLIC "-//W3C//DTD SVG 1.1//EN" "http://www.w3.org/Graphics/SVG/1.1/DTD/svg11.dtd">
<svg version="1.1" id="RR-Abzeichen_1_" xmlns="http://www.w3.org/2000/svg" xmlns:xlink="http://www.w3.org/1999/xlink" x="0px"
	 y="0px" width="2000px" height="2000px" viewBox="0 0 2000 2000" style="enable-background:new 0 0 2000 2000;"
	 xml:space="preserve">
<g id="Rahmen">
	<polygon style="fill:#1D4899;" points="999.994,2000 2000,1000.016 999.994,0 0,1000.016 	"/>
	<polygon style="fill:#FFCB04;" points="999.994,1924.839 1924.805,1000.016 999.994,75.162 75.13,1000.016 	"/>
</g>
<g id="rechts">
	<path id="_x3C_Pfad_x3E_" style="fill:#D30014;" d="M1016.896,170.858l829.493,829.485l-829.721,829.974v-3.885
		c0-0.136-0.013-0.271-0.037-0.405l-3.309-18.079c-0.014-0.075-0.031-0.15-0.053-0.224l-6.303-21.643
		c-0.019-0.064-0.04-0.129-0.064-0.191l-29.794-76.116l-38.497-97.449l-18.93-54.34l-17.123-57.656l-14.128-60.037l-9.258-61.451
		l-2.407-31.16l-0.286-47.08l2.081-31.109l3.903-31.16l6.593-31.108l8.977-30.508l11.371-30.475l22.445-44.631l18.848-28.69
		l21.828-28.423l54.092-57.982c0.035-0.038,0.068-0.076,0.101-0.116l24.951-30.699c0.037-0.046,0.073-0.094,0.106-0.143
		l21.344-30.993c0.025-0.037,0.049-0.075,0.072-0.113l18.701-30.961c0.034-0.057,0.066-0.115,0.096-0.176l15.301-31.319
		c0.029-0.059,0.055-0.118,0.078-0.18l18.047-46.914c0.031-0.081,0.059-0.164,0.08-0.249l12.031-46.948
		c0.02-0.075,0.034-0.151,0.046-0.228l6.932-46.62c0.009-0.059,0.015-0.117,0.019-0.175l2.13-30.665
		c0.005-0.063,0.007-0.125,0.006-0.188l-0.653-46.032c-0.001-0.048-0.003-0.096-0.007-0.144l-2.354-30.078
		c-0.003-0.039-0.007-0.079-0.013-0.118l-3.962-30.077c-0.004-0.03-0.009-0.06-0.014-0.089l-5.101-29.522
		c-0.007-0.044-0.016-0.088-0.026-0.132l-13.496-57.441c-0.011-0.044-0.022-0.088-0.035-0.131l-16.582-55.382
		c-0.011-0.035-0.021-0.069-0.033-0.104l-27.397-77.581c-0.006-0.016-0.012-0.032-0.018-0.048l-34.864-92.028l-13.466-40.15
		l-8.967-35.313l-2.719-23.21L1016.896,170.858"/>
	<g id="rechtes_R">
		<path id="_x3C_Pfad_x3E__2_" style="fill:#FFCB04;" d="M1049.247,1734.344l-35.499-47.783l-28.731-43.24l-23.59-42.097
			l-18.753-42.382l-7.016-21.285l-5.749-21.919l-5.772-33.221l-1.839-34.397l0.681-23.915l4.5-37.294l10.632-48.441l12.056-39.901
			l11.804-25.93l14.718-22.919l11.941-14.05l21.663-20.705l26.972-20.61l45.293-29.597l121.292-69.027l16.074-13.47l13.463-16.352
			l10.871-18.863l4.405-10.504l7.421-22.589l5.329-24.933l2.977-26.787l1.193-28.358l-0.609-30.195l-3.881-47.262l-7.19-49.176
			l-13.501-67.83l-17.424-68.126l-19.489-66.963l-31.54-94.034l-39.408-104.006l-35.22-83.148l-7.825-21.636l338.141,337.797
			l12.771,84.861l6.321,54.044l2.163,38.069l0.59,43.087l-0.002,0.062l-1.207,51.528l-3.438,63.592l5.794-15.581l14.371-30.189
			l17.406-27.05l30.234-36.071l71.326-70.033l202.049,202.413L1049.247,1734.344z"/>
		<path id="_x3C_Pfad_x3E__1_" style="fill:#1D4899;" d="M1107.164,328.73l314.035,313.715l12.413,82.47l6.284,53.678l2.147,37.748
			l0.587,42.88l-1.2,51.311l-5.241,96.912l-1.003,4.766l6.692,1.975l0.916-2.387l0.197-0.515l0.03-0.55l0.128-2.374l2.784-13.221
			l5.028-17.535l5.915-15.945l14.002-29.477l16.916-26.335l29.762-35.531l66.359-65.156l192.415,192.763l-726.318,725.974
			l-30.615-41.204l-28.474-42.835l-23.303-41.555l-18.498-41.767l-6.871-20.823l-5.624-21.396l-5.665-32.471l-1.813-33.912
			l0.646-23.171l4.407-36.648l10.501-47.893l11.885-39.336l11.282-24.864l14.188-22.149l11.435-13.479l21.109-20.205l26.516-20.271
			l44.918-29.359l121.461-69.124l0.274-0.156l0.242-0.203l16.543-13.862l0.248-0.208l0.206-0.25l13.836-16.805l0.185-0.225
			l0.146-0.252l11.116-19.288l0.11-0.191l0.085-0.203l4.538-10.822l0.054-0.129l0.044-0.132l7.519-22.885l0.059-0.178l0.039-0.184
			l5.401-25.271l0.036-0.171l0.02-0.174l3.008-27.069l0.014-0.119l0.005-0.12l1.203-28.574l0.005-0.109l-0.003-0.108l-0.614-30.404
			l-0.002-0.108l-0.009-0.107l-3.897-47.471l-0.009-0.11l-0.017-0.109l-7.219-49.368l-0.013-0.089l-0.018-0.088l-13.535-68.001
			l-0.019-0.092l-0.023-0.092l-17.459-68.263l-0.014-0.056l-0.017-0.056l-19.524-67.086l-0.02-0.067l-0.022-0.067l-31.582-94.157
			l-0.021-0.063l-0.024-0.063l-39.453-104.127l-0.024-0.063l-0.026-0.062L1107.164,328.73"/>
		<path id="_x3C_Pfad_x3E__3_" style="fill:#FFCB04;" d="M1078.07,1520.494l-0.743-3.926c-8.237-43.498-8.149-82.65,0.261-116.37
			c7.207-28.896,20.723-54.558,40.173-76.274c35.308-39.423,83.659-58.896,115.655-71.782l4.77-1.924
			c54.603-21.83,116.502-71.198,117.121-71.694l8.189-6.565l-2.876,10.095c-0.124,0.436-12.679,44.155-36.096,96.339
			c-21.652,48.252-57.308,113.862-104.235,152.504c-32.846,31.633-103.556,74.904-138.483,88.18L1078.07,1520.494z"/>
		<path id="_x3C_Pfad_x3E__4_" style="fill:#D30014;" d="M1351.119,1190.207c-18.964,14.319-66.906,48.819-110.435,66.223
			l-4.768,1.923c-64.685,26.051-184.681,74.363-152.746,252.981c35.48-14.563,101.427-55.314,132.565-85.35l0.198-0.177
			c45.954-37.788,81.072-102.465,102.441-150.068C1334.999,1238.706,1346.103,1205.984,1351.119,1190.207z"/>
	</g>
</g>
<g id="links">
	<path id="_x3C_Pfad_x3E__9_" style="fill:#1D4899;" d="M984.355,1830.68l-829.493-829.485l829.721-829.974v3.885
		c0,0.136,0.012,0.271,0.037,0.405l3.309,18.079c0.014,0.075,0.031,0.15,0.053,0.224l6.303,21.643
		c0.018,0.064,0.039,0.129,0.064,0.191l29.793,76.116l38.498,97.449l18.93,54.34l17.123,57.656l14.127,60.037l9.258,61.451
		l2.408,31.16l0.285,47.08l-2.08,31.109l-3.904,31.16l-6.592,31.108l-8.977,30.508l-11.371,30.475l-22.445,44.631l-18.848,28.69
		l-21.828,28.423l-54.092,57.982c-0.035,0.038-0.068,0.076-0.102,0.116l-24.951,30.699c-0.037,0.046-0.072,0.094-0.105,0.143
		l-21.344,30.993c-0.025,0.037-0.049,0.075-0.072,0.113l-18.701,30.961c-0.035,0.057-0.066,0.115-0.096,0.176l-15.301,31.319
		c-0.029,0.059-0.055,0.118-0.078,0.18l-18.047,46.914c-0.031,0.081-0.059,0.164-0.08,0.249l-12.031,46.948
		c-0.02,0.075-0.035,0.151-0.047,0.228l-6.932,46.62c-0.008,0.059-0.014,0.117-0.018,0.175l-2.131,30.665
		c-0.004,0.063-0.006,0.125-0.006,0.188l0.654,46.032c0,0.048,0.002,0.096,0.006,0.144l2.354,30.078
		c0.004,0.039,0.008,0.079,0.014,0.118l3.961,30.077c0.004,0.03,0.01,0.06,0.014,0.089l5.102,29.522
		c0.006,0.044,0.016,0.088,0.025,0.132l13.496,57.441c0.012,0.044,0.023,0.088,0.035,0.131l16.582,55.382
		c0.012,0.035,0.021,0.069,0.033,0.104l27.398,77.581c0.006,0.016,0.012,0.032,0.018,0.049l34.863,92.027l13.467,40.15l8.967,35.313
		l2.719,23.21L984.355,1830.68"/>
	<g id="linkes_R">
		<path id="_x3C_Pfad_x3E__8_" style="fill:#FFCB04;" d="M952.004,267.193l35.5,47.783l28.73,43.24l23.59,42.097l18.754,42.382
			l7.016,21.285l5.748,21.919l5.773,33.221l1.838,34.397l-0.68,23.915l-4.5,37.294l-10.633,48.441l-12.055,39.901l-11.805,25.93
			l-14.717,22.919l-11.941,14.05l-21.664,20.705l-26.971,20.61l-45.293,29.597l-121.293,69.027l-16.074,13.47l-13.463,16.352
			l-10.871,18.863l-4.404,10.504l-7.422,22.589l-5.328,24.933l-2.977,26.787l-1.193,28.358l0.609,30.195l3.881,47.262l7.189,49.176
			l13.502,67.83l17.424,68.126l19.488,66.963l31.541,94.034l39.408,104.007l35.219,83.147l7.826,21.636l-338.141-337.797
			l-12.771-84.861l-6.322-54.044l-2.162-38.069l-0.59-43.087l0.002-0.062l1.207-51.528l3.438-63.592l-5.793,15.581l-14.371,30.189
			l-17.406,27.05l-30.234,36.071l-71.326,70.033L215.238,1003.61L952.004,267.193z"/>
		<path id="_x3C_Pfad_x3E__7_" style="fill:#D30014;" d="M894.088,1672.807l-314.035-313.715l-12.414-82.47l-6.283-53.678
			l-2.148-37.748l-0.586-42.88l1.199-51.311l5.242-96.912l1.002-4.766l-6.691-1.975l-0.916,2.387l-0.197,0.515l-0.031,0.55
			l-0.127,2.374l-2.785,13.221l-5.027,17.535l-5.916,15.945l-14.002,29.477l-16.916,26.335l-29.762,35.531l-66.359,65.156
			l-192.415-192.763l726.319-725.974l30.615,41.204l28.473,42.835l23.303,41.555l18.498,41.767l6.871,20.823l5.625,21.396
			l5.664,32.471l1.813,33.912l-0.645,23.171l-4.408,36.648l-10.5,47.893l-11.885,39.336l-11.283,24.864l-14.188,22.149
			l-11.436,13.479l-21.109,20.205l-26.516,20.271l-44.918,29.359l-121.461,69.124l-0.273,0.156l-0.242,0.203l-16.543,13.862
			l-0.248,0.208l-0.207,0.25l-13.836,16.805l-0.184,0.225l-0.146,0.252l-11.115,19.288l-0.111,0.191l-0.084,0.203l-4.539,10.822
			l-0.053,0.129l-0.045,0.132l-7.518,22.885l-0.059,0.178l-0.039,0.184l-5.402,25.271l-0.035,0.171l-0.02,0.174l-3.008,27.069
			l-0.014,0.119l-0.006,0.12l-1.203,28.574l-0.004,0.109l0.002,0.108l0.615,30.404l0.002,0.108l0.008,0.107l3.898,47.471l0.008,0.11
			l0.018,0.109l7.219,49.368l0.012,0.089l0.018,0.088l13.535,68.001l0.02,0.092l0.023,0.092l17.459,68.263l0.014,0.056l0.016,0.056
			l19.525,67.086l0.02,0.067l0.021,0.067l31.582,94.157l0.021,0.063l0.025,0.063l39.453,104.128l0.023,0.063l0.027,0.063
			L894.088,1672.807"/>
		<path id="_x3C_Pfad_x3E__6_" style="fill:#FFCB04;" d="M923.182,481.043l0.742,3.926c8.238,43.498,8.15,82.65-0.26,116.37
			c-7.207,28.896-20.723,54.558-40.174,76.274c-35.307,39.423-83.658,58.896-115.654,71.782l-4.77,1.924
			c-54.604,21.83-116.502,71.198-117.121,71.694l-8.189,6.565l2.875-10.095c0.125-0.436,12.68-44.155,36.096-96.339
			c21.652-48.252,57.309-113.862,104.236-152.504c32.846-31.633,103.555-74.904,138.482-88.18L923.182,481.043z"/>
		<path id="_x3C_Pfad_x3E__5_" style="fill:#1D4899;" d="M650.133,811.33c18.963-14.319,66.906-48.819,110.434-66.223l4.768-1.923
			c64.686-26.051,184.682-74.363,152.746-252.981c-35.48,14.563-101.426,55.314-132.564,85.35l-0.199,0.177
			c-45.953,37.788-81.072,102.465-102.441,150.068C666.252,762.831,655.148,795.553,650.133,811.33z"/>
	</g>
</g>
</svg>
