<?xml version="1.0" encoding="iso-8859-1"?>
<!-- Generator: Adobe Illustrator 16.0.3, SVG Export Plug-In . SVG Version: 6.00 Build 0)  -->
<!DOCTYPE svg PUBLIC "-//W3C//DTD SVG 1.1//EN" "http://www.w3.org/Graphics/SVG/1.1/DTD/svg11.dtd">
<svg version="1.1" id="Wolfskopf" xmlns="http://www.w3.org/2000/svg" xmlns:xlink="http://www.w3.org/1999/xlink" x="0px" y="0px"
	 width="2000px" height="2000px" viewBox="-130 572 2000 2000" style="enable-background:new -130 572 2000 2000;"
	 xml:space="preserve">
<circle id="Gelber_Kreis" style="fill:#FFCB04;" cx="870" cy="1572" r="1000"/>
<path id="Kopf" d="M488.234,802.007c20.895,26.593,243.54,368.473,243.54,368.473h271.579c0,0,238.921-358.974,244.619-370.37
	c4.167,11.129,49.379,129.156,60.774,186.137c32.291,165.242-7.194,300.097-73.673,366.57
	c22.792,49.384,129.162,283.002,129.162,283.002l-47.888-26.592l-30.394,241.219l-51.282-26.593l-195.229,239.316l13.305-138.649
	h-21.301l-32.291,301.994l-132.951,94.963l-131.055-96.865l-31.867-300.092l-21.317,1.897l13.711,136.752l-194.144-239.316
	l-55.083,24.69l-26.593-237.425l-49.385,22.792c0,0,118.184-256.404,131.478-281.1c-81.67-66.473-101.084-273.505-72.171-366.57
	C444.547,921.665,467.339,855.187,488.234,802.007z M541.413,1261.643c11.396-22.792,37.989-89.271,37.989-89.271
	s-56.98-127.254-77.875-170.94C480.639,1064.115,471.14,1183.773,541.413,1261.643z M1232.737,1001.438
	c-20.89,43.687-77.869,170.939-77.869,170.939s26.587,66.479,37.982,89.271C1263.123,1183.773,1253.631,1064.115,1232.737,1001.438z
	 M605.994,1594.024l93.065,176.638l58.878-45.584L605.994,1594.024z M1035.242,1770.662l93.065-176.638L976.36,1725.078
	 M918.111,2159.229H813.955l52.166,69.611L918.111,2159.229z"/>
</svg>
